<?xml version="1.0" standalone="no"?><!DOCTYPE svg PUBLIC "-//W3C//DTD SVG 1.1//EN" "http://www.w3.org/Graphics/SVG/1.1/DTD/svg11.dtd"><svg t="1717235580147" class="icon" viewBox="0 0 1024 1024" version="1.1" xmlns="http://www.w3.org/2000/svg" p-id="5418" xmlns:xlink="http://www.w3.org/1999/xlink" width="200" height="200"><path d="M197.741964 256.129685c-5.687928 0-11.375857-1.421982-17.063785-5.687928-12.797839-8.531892-15.641803-27.017659-7.109911-39.815498l49.769373-68.255139h-44.081444c-9.953874 0-19.907749-5.687928-25.595677-15.641803-4.265946-8.531892-4.265946-19.907749 1.421982-28.439641l56.879282-85.318924c8.531892-12.797839 27.017659-17.063785 39.815498-8.531893 12.797839 8.531892 17.063785 25.595677 8.531892 39.815498L233.291515 85.491837h46.925408c9.953874 0 19.907749 5.687928 25.595678 15.641803 4.265946 9.953874 4.265946 21.329731-1.421983 29.861623l-82.474959 113.758565c-5.687928 7.10991-14.219821 11.375857-24.173695 11.375857zM762.268843 256.129685c-5.687928 0-11.375857-1.421982-17.063784-5.687928-12.797839-8.531892-15.641803-27.017659-5.687929-39.815498l49.769373-68.255139h-44.081444c-9.953874 0-19.907749-5.687928-25.595677-15.641803-4.265946-8.531892-4.265946-19.907749 1.421982-28.439641l56.879282-85.318924c8.531892-12.797839 27.017659-17.063785 39.815498-8.531893 12.797839 8.531892 17.063785 25.595677 8.531892 39.815498L796.396413 85.491837h46.925408c9.953874 0 19.907749 5.687928 25.595677 15.641803 4.265946 9.953874 4.265946 21.329731-1.421982 29.861623l-82.474959 113.758565c-5.687928 7.10991-14.219821 11.375857-22.751714 11.375857zM711.077489 284.569326h-56.879282v341.275696c0 78.209014-63.989193 142.198207-142.198207 142.198206s-142.198207-63.989193-142.198207-142.198206V284.569326H85.40538v312.836054c0 236.049023 190.545597 426.59462 426.59462 426.59462s426.59462-190.545597 426.59462-426.59462V284.569326H711.077489z m170.637848 56.879283v139.354242H711.077489V341.448609h170.637848z m-568.792826 0v139.354242H142.284663V341.448609h170.637848z m199.077489 625.672108c-204.765417 0-369.715337-164.94992-369.715337-369.715337v-61.145228h170.637848V625.845022c0 109.492619 89.58487 199.077489 199.077489 199.077489s199.077489-89.58487 199.077489-199.077489v-89.58487h170.637848V597.40538c0 204.765417-164.94992 369.715337-369.715337 369.715337z" fill="#00AAFF" p-id="5419"></path></svg>